# xmcd
#
# Track frame offsets:
#	150
#	17553
#	33610
#	50188
#	64590
#	79580
#	94433
#	109123
#	127433
#	142580
#
# Disc length: 2114 seconds
#
# Revision: 5
# Processed by: cddbd v1.5.1PL0 Copyright (c) Steve Scherf et al.
# Submitted via: audiograbber 1.83.01
#
DISCID=8a08400a
DTITLE=Various Artist - 30 Years Of #1 Hits - Vol. 15
DYEAR=1993
DGENRE=Country
TTITLE0=Ray Charles And Willie Nelson - Seven Spanish Angels
TTITLE1=Merle Haggard - Someday When Things Are Good
TTITLE2=Exile - I Don't Want To Be A Memory
TTITLE3=Charly McClain - Radio Heart
TTITLE4=Ricky Skaggs - Don't Cheat In Our Home Town
TTITLE5=Rosanne Cash - Seven Year Ache
TTITLE6=Shenandoah - See If I Care
TTITLE7=Janie Frickie - Tell Me A Lie
TTITLE8=Mickey Gilley - Put Your Dreams Away
TTITLE9=TG Sheppard - Strong Heart
EXTD=Ray Charles with Willie Nelson
EXTT0=
EXTT1=Merle Haggard\n
EXTT2=Exile
EXTT3=Charly McClain
EXTT4=Ricky Skaggs
EXTT5=Rosanne Cash
EXTT6=Shenandoah
EXTT7=Janie Frickie
EXTT8=Mickey Gilley
EXTT9=T.G. Sheppard
PLAYORDER=
